<?xml version="1.0" encoding="UTF-8" standalone="no"?>
<!-- Created with Inkscape (http://www.inkscape.org/) -->

<svg
   width="64"
   height="64"
   viewBox="0 0 16.933333 16.933334"
   version="1.1"
   id="svg5"
   inkscape:version="1.1.2 (b8e25be833, 2022-02-05)"
   sodipodi:docname="logo.svg"
   inkscape:export-filename="D:\vscode\nodelib\resources\icons\nodelib\node.png"
   inkscape:export-xdpi="96"
   inkscape:export-ydpi="96"
   xmlns:inkscape="http://www.inkscape.org/namespaces/inkscape"
   xmlns:sodipodi="http://sodipodi.sourceforge.net/DTD/sodipodi-0.dtd"
   xmlns="http://www.w3.org/2000/svg"
   xmlns:svg="http://www.w3.org/2000/svg"
   xmlns:rdf="http://www.w3.org/1999/02/22-rdf-syntax-ns#"
   xmlns:cc="http://creativecommons.org/ns#"
   xmlns:dc="http://purl.org/dc/elements/1.1/">
  <title
     id="title10401">node icon</title>
  <sodipodi:namedview
     id="namedview7"
     pagecolor="#585858"
     bordercolor="#666666"
     borderopacity="1.0"
     inkscape:pageshadow="2"
     inkscape:pageopacity="0"
     inkscape:pagecheckerboard="true"
     inkscape:document-units="px"
     showgrid="true"
     units="px"
     inkscape:zoom="8"
     inkscape:cx="37.1875"
     inkscape:cy="25.6875"
     inkscape:window-width="1304"
     inkscape:window-height="745"
     inkscape:window-x="54"
     inkscape:window-y="-8"
     inkscape:window-maximized="1"
     inkscape:current-layer="layer1"
     showguides="true"
     inkscape:guide-bbox="true"
     inkscape:snap-smooth-nodes="true"
     inkscape:snap-midpoints="false"
     inkscape:snap-text-baseline="true">
    <inkscape:grid
       type="xygrid"
       id="grid824"
       spacingx="0.26458334"
       spacingy="0.26458334"
       color="#26ff26"
       opacity="0.1254902"
       empcolor="#26ff26"
       empopacity="0.1254902"
       dotted="true"
       enabled="false" />
  </sodipodi:namedview>
  <defs
     id="defs2">
    <inkscape:path-effect
       effect="powerclip"
       id="path-effect1171"
       is_visible="true"
       lpeversion="1"
       inverse="true"
       flatten="false"
       hide_clip="false"
       message="Use fill-rule evenodd on &lt;b&gt;fill and stroke&lt;/b&gt; dialog if no flatten result after convert clip to paths." />
    <inkscape:path-effect
       effect="powerclip"
       id="path-effect9936"
       is_visible="true"
       lpeversion="1"
       inverse="true"
       flatten="false"
       hide_clip="false"
       message="Use fill-rule evenodd on &lt;b&gt;fill and stroke&lt;/b&gt; dialog if no flatten result after convert clip to paths." />
    <inkscape:path-effect
       effect="powerclip"
       id="path-effect9386"
       is_visible="true"
       lpeversion="1"
       inverse="true"
       flatten="false"
       hide_clip="false"
       message="Use fill-rule evenodd on &lt;b&gt;fill and stroke&lt;/b&gt; dialog if no flatten result after convert clip to paths." />
    <inkscape:path-effect
       effect="powerclip"
       id="path-effect9120"
       is_visible="true"
       lpeversion="1"
       inverse="true"
       flatten="false"
       hide_clip="false"
       message="Use fill-rule evenodd on &lt;b&gt;fill and stroke&lt;/b&gt; dialog if no flatten result after convert clip to paths." />
    <inkscape:path-effect
       effect="powerclip"
       id="path-effect4168"
       is_visible="true"
       lpeversion="1"
       inverse="true"
       flatten="false"
       hide_clip="false"
       message="Usa la regola di riempimento (fill-rule) evenodd in &lt;b&gt;Riempimento e contorni&lt;/b&gt; se non si ottiene un risultato appiattendo il fissaggio una volta convertito in tracciato." />
    <inkscape:path-effect
       effect="powerclip"
       id="path-effect3915"
       is_visible="true"
       lpeversion="1"
       inverse="true"
       flatten="false"
       hide_clip="false"
       message="Usa la regola di riempimento (fill-rule) evenodd in &lt;b&gt;Riempimento e contorni&lt;/b&gt; se non si ottiene un risultato appiattendo il fissaggio una volta convertito in tracciato." />
    <inkscape:path-effect
       effect="powerclip"
       id="path-effect3911"
       is_visible="true"
       lpeversion="1"
       inverse="true"
       flatten="false"
       hide_clip="false"
       message="Usa la regola di riempimento (fill-rule) evenodd in &lt;b&gt;Riempimento e contorni&lt;/b&gt; se non si ottiene un risultato appiattendo il fissaggio una volta convertito in tracciato." />
    <inkscape:path-effect
       effect="powerclip"
       id="path-effect3132"
       is_visible="true"
       lpeversion="1"
       inverse="true"
       flatten="false"
       hide_clip="false"
       message="Usa la regola di riempimento (fill-rule) evenodd in &lt;b&gt;Riempimento e contorni&lt;/b&gt; se non si ottiene un risultato appiattendo il fissaggio una volta convertito in tracciato." />
    <inkscape:path-effect
       effect="powerclip"
       id="path-effect3034"
       is_visible="true"
       lpeversion="1"
       inverse="true"
       flatten="false"
       hide_clip="false"
       message="Usa la regola di riempimento (fill-rule) evenodd in &lt;b&gt;Riempimento e contorni&lt;/b&gt; se non si ottiene un risultato appiattendo il fissaggio una volta convertito in tracciato." />
    <clipPath
       clipPathUnits="userSpaceOnUse"
       id="clipPath3030">
      <path
         id="path3032"
         style="display:none;fill:#d40000;fill-rule:evenodd;stroke-width:0.639395;stroke-linecap:round;stroke-linejoin:round"
         d="m 8.7793031,1.314116 h 6.6222879 c 0,0 0,0 0,0 v 8.680095 c 0,0 0,0 0,0 H 8.7793031 c 0,0 0,0 0,0 V 1.314116 c 0,0 0,0 0,0 z" />
      <path
         id="lpe_path-effect3034"
         style="fill:#d40000;fill-rule:evenodd;stroke-width:0.639395;stroke-linecap:round;stroke-linejoin:round"
         class="powerclip"
         d="M -3.1479182,-3.1479182 H 20.08125 V 20.08125 H -3.1479182 Z M 8.7793031,1.314116 c 0,0 0,0 0,0 v 8.680095 c 0,0 0,0 0,0 h 6.6222879 c 0,0 0,0 0,0 V 1.314116 c 0,0 0,0 0,0 z" />
    </clipPath>
    <clipPath
       clipPathUnits="userSpaceOnUse"
       id="clipPath3030-8">
      <path
         id="path3032-6"
         style="display:none;fill:#d40000;fill-rule:evenodd;stroke-width:0.639395;stroke-linecap:round;stroke-linejoin:round"
         d="m 8.7793031,1.314116 h 6.6222879 c 0,0 0,0 0,0 v 8.680095 c 0,0 0,0 0,0 H 8.7793031 c 0,0 0,0 0,0 V 1.314116 c 0,0 0,0 0,0 z" />
      <path
         id="lpe_path-effect3034-3"
         style="fill:#d40000;fill-rule:evenodd;stroke-width:0.639395;stroke-linecap:round;stroke-linejoin:round"
         class="powerclip"
         d="M -3.1479184,-3.1479184 H 20.08125 V 20.08125 H -3.1479184 Z M 8.7793031,1.314116 c 0,0 0,0 0,0 v 8.680095 c 0,0 0,0 0,0 h 6.6222879 c 0,0 0,0 0,0 V 1.314116 c 0,0 0,0 0,0 z" />
    </clipPath>
    <clipPath
       clipPathUnits="userSpaceOnUse"
       id="clipath_lpe_path-effect3132">
      <path
         id="path3134"
         style="display:none;fill:#d40000;fill-rule:evenodd;stroke-width:0.639395;stroke-linecap:round;stroke-linejoin:round"
         d="m 8.7793031,1.314116 h 6.6222879 c 0,0 0,0 0,0 v 8.680095 c 0,0 0,0 0,0 H 8.7793031 c 0,0 0,0 0,0 V 1.314116 c 0,0 0,0 0,0 z" />
      <path
         id="lpe_path-effect3132"
         style="fill:#d40000;fill-rule:evenodd;stroke-width:0.639395;stroke-linecap:round;stroke-linejoin:round"
         class="powerclip"
         d="M -3.1479184,-3.1479184 H 20.08125 V 20.08125 H -3.1479184 Z M 8.7793031,1.314116 c 0,0 0,0 0,0 v 8.680095 c 0,0 0,0 0,0 h 6.6222879 c 0,0 0,0 0,0 V 1.314116 c 0,0 0,0 0,0 z" />
    </clipPath>
    <clipPath
       clipPathUnits="userSpaceOnUse"
       id="clipath_lpe_path-effect3132-9">
      <path
         id="path3134-7"
         style="display:none;fill:#d40000;fill-rule:evenodd;stroke-width:0.639395;stroke-linecap:round;stroke-linejoin:round"
         d="m 8.7793031,1.314116 h 6.6222879 c 0,0 0,0 0,0 v 8.680095 c 0,0 0,0 0,0 H 8.7793031 c 0,0 0,0 0,0 V 1.314116 c 0,0 0,0 0,0 z" />
      <path
         id="lpe_path-effect3132-9"
         style="fill:#d40000;fill-rule:evenodd;stroke-width:0.639395;stroke-linecap:round;stroke-linejoin:round"
         class="powerclip"
         d="M -3.4124999,-3.4124999 H 20.345832 V 20.345832 H -3.4124999 Z M 8.7793031,1.314116 c 0,0 0,0 0,0 v 8.680095 c 0,0 0,0 0,0 h 6.6222879 c 0,0 0,0 0,0 V 1.314116 c 0,0 0,0 0,0 z" />
    </clipPath>
    <clipPath
       clipPathUnits="userSpaceOnUse"
       id="clipPath3030-1">
      <path
         id="path3032-9"
         style="display:none;fill:#d40000;fill-rule:evenodd;stroke-width:0.639395;stroke-linecap:round;stroke-linejoin:round"
         d="m 8.7793031,1.314116 h 6.6222879 c 0,0 0,0 0,0 v 8.680095 c 0,0 0,0 0,0 H 8.7793031 c 0,0 0,0 0,0 V 1.314116 c 0,0 0,0 0,0 z" />
      <path
         id="lpe_path-effect3034-0"
         style="fill:#d40000;fill-rule:evenodd;stroke-width:0.639395;stroke-linecap:round;stroke-linejoin:round"
         class="powerclip"
         d="M -3.4124999,-3.4124999 H 20.345832 V 20.345832 H -3.4124999 Z M 8.7793031,1.314116 c 0,0 0,0 0,0 v 8.680095 c 0,0 0,0 0,0 h 6.6222879 c 0,0 0,0 0,0 V 1.314116 c 0,0 0,0 0,0 z" />
    </clipPath>
    <clipPath
       clipPathUnits="userSpaceOnUse"
       id="clipath_lpe_path-effect3915">
      <path
         id="path3917"
         style="display:none;fill:#d40000;fill-rule:evenodd;stroke-width:0.639395;stroke-linecap:round;stroke-linejoin:round"
         d="m 8.7793031,1.314116 h 6.6222879 c 0,0 0,0 0,0 v 8.680095 c 0,0 0,0 0,0 H 8.7793031 c 0,0 0,0 0,0 V 1.314116 c 0,0 0,0 0,0 z" />
      <path
         id="lpe_path-effect3915"
         style="fill:#d40000;fill-rule:evenodd;stroke-width:0.639395;stroke-linecap:round;stroke-linejoin:round"
         class="powerclip"
         d="M -3.4124999,-3.4124999 H 20.345832 V 20.345832 H -3.4124999 Z M 8.7793031,1.314116 c 0,0 0,0 0,0 v 8.680095 c 0,0 0,0 0,0 h 6.6222879 c 0,0 0,0 0,0 V 1.314116 c 0,0 0,0 0,0 z" />
    </clipPath>
    <clipPath
       clipPathUnits="userSpaceOnUse"
       id="clipath_lpe_path-effect3911">
      <path
         id="path3922"
         style="display:none;fill:#d40000;fill-rule:evenodd;stroke-width:0.639395;stroke-linecap:round;stroke-linejoin:round"
         d="m 8.7793031,1.314116 h 6.6222879 c 0,0 0,0 0,0 v 8.680095 c 0,0 0,0 0,0 H 8.7793031 c 0,0 0,0 0,0 V 1.314116 c 0,0 0,0 0,0 z" />
      <path
         id="lpe_path-effect3911"
         style="fill:#d40000;fill-rule:evenodd;stroke-width:0.639395;stroke-linecap:round;stroke-linejoin:round"
         class="powerclip"
         d="M -3.4124999,-3.4124999 H 20.345832 V 20.345832 H -3.4124999 Z M 8.7793031,1.314116 c 0,0 0,0 0,0 v 8.680095 c 0,0 0,0 0,0 h 6.6222879 c 0,0 0,0 0,0 V 1.314116 c 0,0 0,0 0,0 z" />
    </clipPath>
    <clipPath
       clipPathUnits="userSpaceOnUse"
       id="clipath_lpe_path-effect3915-4">
      <path
         id="path3917-7"
         style="display:none;fill:#d40000;fill-rule:evenodd;stroke-width:0.639395;stroke-linecap:round;stroke-linejoin:round"
         d="m 8.7793031,1.314116 h 6.6222879 c 0,0 0,0 0,0 v 8.680095 c 0,0 0,0 0,0 H 8.7793031 c 0,0 0,0 0,0 V 1.314116 c 0,0 0,0 0,0 z" />
      <path
         id="lpe_path-effect3915-6"
         style="fill:#d40000;fill-rule:evenodd;stroke-width:0.639395;stroke-linecap:round;stroke-linejoin:round"
         class="powerclip"
         d="M -3.4124999,-3.4124999 H 20.345832 V 20.345832 H -3.4124999 Z M 8.7793031,1.314116 c 0,0 0,0 0,0 v 8.680095 c 0,0 0,0 0,0 h 6.6222879 c 0,0 0,0 0,0 V 1.314116 c 0,0 0,0 0,0 z" />
    </clipPath>
    <clipPath
       clipPathUnits="userSpaceOnUse"
       id="clipath_lpe_path-effect4168">
      <path
         id="lpe_path-effect4168"
         style="fill:#d40000;fill-rule:evenodd;stroke-width:0.639395;stroke-linecap:round;stroke-linejoin:round"
         class="powerclip"
         d="M -3.4124999,-3.4124999 H 20.345832 V 20.345832 H -3.4124999 Z M 8.7793031,1.314116 c 0,0 0,0 0,0 v 8.680095 c 0,0 0,0 0,0 h 6.6222879 c 0,0 0,0 0,0 V 1.314116 c 0,0 0,0 0,0 z" />
    </clipPath>
    <clipPath
       clipPathUnits="userSpaceOnUse"
       id="clipPath9116">
      <rect
         style="display:block;opacity:0.30485;fill:#ff0000;stroke:none;stroke-width:1.3568"
         id="rect9118"
         width="7.1437497"
         height="7.79318"
         x="8.4666672"
         y="1.2026531" />
    </clipPath>
    <clipPath
       clipPathUnits="userSpaceOnUse"
       id="clipath_lpe_path-effect9386">
      <rect
         style="display:none;opacity:0.30485;fill:#ff0000;stroke:none;stroke-width:1.3568"
         id="rect9394"
         width="7.1437497"
         height="7.79318"
         x="8.4666672"
         y="1.2026531"
         d="M 8.4666672,1.2026531 H 15.610417 V 8.995833 H 8.4666672 Z" />
      <path
         id="lpe_path-effect9386"
         style="opacity:0.30485;fill:#ff0000;stroke:none;stroke-width:1.3568"
         class="powerclip"
         d="M -2.3541639,-2.3541639 H 19.287498 V 19.287498 H -2.3541639 Z M 8.4666672,1.2026531 V 8.995833 H 15.610417 V 1.2026531 Z" />
    </clipPath>
    <clipPath
       clipPathUnits="userSpaceOnUse"
       id="clipPath9932">
      <rect
         style="display:block;opacity:0.30485;fill:#ff0000;stroke:none;stroke-width:1.3568"
         id="rect9934"
         width="7.1437497"
         height="7.79318"
         x="8.4666672"
         y="1.2026531" />
    </clipPath>
    <clipPath
       clipPathUnits="userSpaceOnUse"
       id="clipath_lpe_path-effect9386-2">
      <rect
         style="display:none;opacity:0.30485;fill:#ff0000;stroke:none;stroke-width:1.3568"
         id="rect9394-6"
         width="7.1437497"
         height="7.79318"
         x="8.4666672"
         y="1.2026531"
         d="M 8.4666672,1.2026531 H 15.610417 V 8.995833 H 8.4666672 Z" />
      <path
         id="lpe_path-effect9386-9"
         style="opacity:0.30485;fill:#ff0000;stroke:none;stroke-width:1.3568"
         class="powerclip"
         d="M -2.3541639,-2.3541639 H 19.287498 V 19.287498 H -2.3541639 Z M 8.4666672,1.2026531 V 8.995833 H 15.610417 V 1.2026531 Z" />
    </clipPath>
    <inkscape:path-effect
       effect="powerclip"
       id="path-effect9386-8"
       is_visible="true"
       lpeversion="1"
       inverse="true"
       flatten="false"
       hide_clip="false"
       message="Use fill-rule evenodd on &lt;b&gt;fill and stroke&lt;/b&gt; dialog if no flatten result after convert clip to paths." />
    <clipPath
       clipPathUnits="userSpaceOnUse"
       id="clipath_lpe_path-effect9386-8">
      <rect
         style="display:none;opacity:0.30485;fill:#ff0000;stroke:none;stroke-width:1.3568"
         id="rect11233"
         width="7.1437497"
         height="7.79318"
         x="8.4666672"
         y="1.2026531"
         d="M 8.4666672,1.2026531 H 15.610417 V 8.995833 H 8.4666672 Z" />
      <path
         id="lpe_path-effect9386-8"
         style="opacity:0.30485;fill:#ff0000;stroke:none;stroke-width:1.3568"
         class="powerclip"
         d="M -2.3541639,-2.3541639 H 19.287498 V 19.287498 H -2.3541639 Z M 8.4666672,1.2026531 V 8.995833 H 15.610417 V 1.2026531 Z" />
    </clipPath>
    <clipPath
       clipPathUnits="userSpaceOnUse"
       id="clipath_lpe_path-effect9386-22">
      <rect
         style="display:none;opacity:0.30485;fill:#ff0000;stroke:none;stroke-width:1.3568"
         id="rect9394-0"
         width="7.1437497"
         height="7.79318"
         x="8.4666672"
         y="1.2026531"
         d="M 8.4666672,1.2026531 H 15.610417 V 8.995833 H 8.4666672 Z" />
      <path
         id="lpe_path-effect9386-1"
         style="opacity:0.30485;fill:#ff0000;stroke:none;stroke-width:1.3568"
         class="powerclip"
         d="M -2.3541639,-2.3541639 H 19.287498 V 19.287498 H -2.3541639 Z M 8.4666672,1.2026531 V 8.995833 H 15.610417 V 1.2026531 Z" />
    </clipPath>
    <inkscape:path-effect
       effect="powerclip"
       id="path-effect9386-5"
       is_visible="true"
       lpeversion="1"
       inverse="true"
       flatten="false"
       hide_clip="false"
       message="Use fill-rule evenodd on &lt;b&gt;fill and stroke&lt;/b&gt; dialog if no flatten result after convert clip to paths." />
    <clipPath
       clipPathUnits="userSpaceOnUse"
       id="clipath_lpe_path-effect9386-5">
      <rect
         style="display:none;opacity:0.30485;fill:#ff0000;stroke:none;stroke-width:1.3568"
         id="rect1123"
         width="7.1437497"
         height="7.79318"
         x="8.4666672"
         y="1.2026531"
         d="M 8.4666672,1.2026531 H 15.610417 V 8.995833 H 8.4666672 Z" />
      <path
         id="lpe_path-effect9386-5"
         style="opacity:0.30485;fill:#ff0000;stroke:none;stroke-width:1.3568"
         class="powerclip"
         d="M -2.3541639,-2.3541639 H 19.287498 V 19.287498 H -2.3541639 Z M 8.4666672,1.2026531 V 8.995833 H 15.610417 V 1.2026531 Z" />
    </clipPath>
    <clipPath
       clipPathUnits="userSpaceOnUse"
       id="clipath_lpe_path-effect1171">
      <rect
         style="display:block;opacity:0.30485;fill:#ff0000;stroke:none;stroke-width:1.3568"
         id="rect1177"
         width="7.1437497"
         height="7.79318"
         x="8.4666672"
         y="1.2026531" />
    </clipPath>
    <filter
       inkscape:collect="always"
       style="color-interpolation-filters:sRGB"
       id="filter1254"
       x="-0.36689613"
       y="-0.29084483"
       width="1.7337923"
       height="1.5816897">
      <feGaussianBlur
         inkscape:collect="always"
         stdDeviation="0.73047324"
         id="feGaussianBlur1256" />
    </filter>
    <filter
       inkscape:collect="always"
       style="color-interpolation-filters:sRGB"
       id="filter1262"
       x="-0.2656508"
       y="-0.2656508"
       width="1.5313016"
       height="1.5313016">
      <feGaussianBlur
         inkscape:collect="always"
         stdDeviation="0.73047324"
         id="feGaussianBlur1264" />
    </filter>
  </defs>
  <g
     inkscape:label="Livello 1"
     inkscape:groupmode="layer"
     id="layer1">
    <circle
       style="fill:none;stroke:#ffffff;stroke-width:2.11667;stroke-linecap:round;stroke-linejoin:round;stroke-miterlimit:4;stroke-dasharray:none;filter:url(#filter1262)"
       id="circle1165"
       cx="8.4658308"
       cy="8.8781843"
       r="5.291666"
       inkscape:label="outer-ring" />
    <text
       xml:space="preserve"
       style="font-style:normal;font-weight:normal;font-size:9.39778px;line-height:1.25;font-family:sans-serif;fill:#ffffff;fill-opacity:1;stroke:#ffffff;stroke-width:0.396875;stroke-linecap:butt;stroke-linejoin:round;stroke-miterlimit:4;stroke-dasharray:none;filter:url(#filter1254)"
       x="8.3883371"
       y="8.6136007"
       id="text1175"
       inkscape:label="text"><tspan
         sodipodi:role="line"
         id="tspan1173"
         style="fill:#ffffff;stroke:#ffffff;stroke-width:0.396875;stroke-linecap:butt;stroke-linejoin:round;stroke-miterlimit:4;stroke-dasharray:none"
         x="8.3883371"
         y="8.6136007">N</tspan></text>
    <circle
       style="fill:none;stroke:#000000;stroke-width:2.11667;stroke-linecap:round;stroke-linejoin:round;stroke-miterlimit:4;stroke-dasharray:none"
       id="circle9380"
       cx="8.4658308"
       cy="8.8781843"
       r="5.291666"
       inkscape:label="outer-ring" />
    <path
       style="fill:none;stroke:#ffffff;stroke-width:1.05833;stroke-linecap:butt;stroke-linejoin:miter;stroke-miterlimit:4;stroke-dasharray:none"
       id="path9382"
       clip-path="url(#clipath_lpe_path-effect9386-5)"
       inkscape:path-effect="#path-effect9386-5"
       sodipodi:type="arc"
       sodipodi:cx="8.4666672"
       sodipodi:cy="8.4666672"
       sodipodi:rx="5.291666"
       sodipodi:ry="5.291666"
       transform="translate(-8.352e-4,0.411518)"
       inkscape:label="inner-ring"
       d="M 13.758333,8.4666672 A 5.291666,5.291666 0 0 1 8.4666672,13.758333 5.291666,5.291666 0 0 1 3.1750011,8.4666672 5.291666,5.291666 0 0 1 8.4666672,3.1750011 5.291666,5.291666 0 0 1 13.758333,8.4666672 Z" />
    <text
       xml:space="preserve"
       style="font-style:normal;font-weight:normal;font-size:9.39778px;line-height:1.25;font-family:sans-serif;fill:#ffffff;fill-opacity:1;stroke:#000000;stroke-width:0.396875;stroke-linecap:butt;stroke-linejoin:round;stroke-miterlimit:4;stroke-dasharray:none"
       x="8.3883371"
       y="8.6136007"
       id="text9392"
       inkscape:label="text"><tspan
         sodipodi:role="line"
         id="tspan9390"
         style="fill:#ffffff;stroke:#000000;stroke-width:0.396875;stroke-linecap:butt;stroke-linejoin:round;stroke-miterlimit:4;stroke-dasharray:none"
         x="8.3883371"
         y="8.6136007">N</tspan></text>
  </g>
  <metadata
     id="metadata3393">
    <rdf:RDF>
      <cc:Work
         rdf:about="">
        <dc:creator>
          <cc:Agent>
            <dc:title>GiantpDev ( _gianpy_ )</dc:title>
          </cc:Agent>
        </dc:creator>
        <dc:title>node icon</dc:title>
      </cc:Work>
    </rdf:RDF>
  </metadata>
</svg>
